<?xml version="1.0" encoding="UTF-8"?><svg id="Capa_1" xmlns="http://www.w3.org/2000/svg" viewBox="0 0 325 437.37"><defs><style>.cls-1{fill:none;stroke:#fff;stroke-miterlimit:100;stroke-width:3px;}</style></defs><g><path class="cls-1" d="M89.47,234.99c.34-3.77,1.74-5.08,5.49-5.62,1.57-.19,6.57-.88,8.12-.11,1.28,.62,1.34,2.07,2.14,3.08,.52,.69,2.13,1.96,2.42,2.65,1.46,3.55-1.02,5.73,3.09,8.67,.96,.65,2.78,.54,3.61,1.16,1.03,.69,1.6,2.58,2.41,3.55,1.38,1.68,3.64,2.32,2.59,4.93-.85,2.15-3.69,2.3-3.72,5.27-.05,4.05,2.33,2.28,5.09,2.9,4.03,.95,2.61,3.05,3.97,5.77,.76,1.59,1.95,1.31,2.53,2.93,.5,1.42-.25,3.59-.27,5.08-2.95,.54-5.31-1.34-5.83,2.71-1.04,.15-2.58-.43-3.46-.2-1.58,.5-1.24,1.27-2.14,1.74-1.92,.93-3.75,.54-5.48,2.73-1.84,2.39-.57,3.7-1.15,6.41-.15,.62-1.33,.41-1.44,.99-.2,1.23,.23,1.01,.37,2.24,.09,.84,.34,2.07,.28,2.93,3.12,.11,11.39,2.11,5.52,6.65-3.31,2.52-11.39-1.18-10.81-5.16-4.69-2.58-.92,7.51-.32,9.06,2.19,5.44,4.54,8.01,9.91,9.83,4.72,1.53,10.02,2.76,13.98,5.7,1.71,1.23,4.74,3.16,3.38,5.77-.8,1.55-1.39,.69-2.91,1.51-1.1,.58-2.54,2.19-3.49,2.54-2.37,.92-7.1-2.39-9.24-.54-2.38,2.11,1.12,3.16,2.66,4,3.91,2.13,6.82,4.52,9.15,8.16,1.1,1.74,.68,4.05,2.23,5.21,1.6,1.12,5.81,1.05,7.67,1.89,2.52,1.2,4.25,3.42,.25,4.35-1.89,.43-5.6-.32-7.79-.47-5.8-.37-10.54-7.55-12.11,1.66-.59,3.42-.92,5.51,1.34,8.31,2.1,2.63,3.94,5.47,6.79,7.6,.73-1.05,.83-1.33,2.11-1.36,.72,0,1.06-.15,1.28,.62,.13,.43,.08,1.27-.07,1.66-.57,1.77-4.2,.73-3.98,2.86,.17,1.38,4.93,3.16,3.02,4.65-.9,.73-2.61,.11-3.42-.5-1.09-.84-1.66-2-2.34-3.16-.76-1.27-1.7-2.35-3.11-3.01-.87-.37-1.97-.65-2.92-.84-.59-.11-1.57-.47-2.11-.26-.08,3.7,4.13,3.53,5.56,6.24,.57,1.03,.52,2.54,.65,3.74,.19,1.46-.34,2.54-1.05,3.77-.45,.73-2.6,1.46-3.51,1.12-1.39-.5-.81-1.51-1.62-2.32-1.29-1.27-4.32-.93-6.26-.65-.03,.73-.03,1.57-.09,2.28-1.94,.15-3.84,0-5.65-.47-1.55-.47-2.2-1.31-3.6-1.05-1.69,.36-1.64,1.89-3.49,.84-.93-.56-2.15-2.04-3.03-2.73-1.61-1.27-2.51-2.58-4.9-2-2.06,.47-4.53,1.85-6.86,.99-1.25-.45-2.26-2.11-3.32-2.95-1.05-.86-2.79-1.36-3.19-2.54-.62-1.77,1.6-5.83,2.2-7.43,.59-1.66,1.35-2.82,2.24-4.37,.99-1.72,.85-2.76,.79-4.87-.14-6.09,3.38-11.17,3.92-17.19,.46-4.82,1.51-9.02,1.4-14.06-.06-2.97-.89-5.51-1.23-8.48-.38-3.46-.19-7.08-.28-10.59,.26-.15,.07-.34-.11-.58-3.62-1.1-5.79-4.58-6.57-7.88-.83-3.66-4.66-5.94-5.37-9.53-.72-3.53,.55-5.16-1.57-8.35-.83-1.23-2.68-3.51-1.52-5.01,.93-1.31,3.45-.5,4.63-1.7,.97-1.01,.58-3.12,.81-4.43,.32-1.89,.96-3.19,1.07-5.21,.21-3.89,2.43-9.15,.46-12.82-1.21-2.24-3.35-3.9-4.02-6.59-.87-3.27,1.67-2.04,2.3-4.28,1.1-3.96-9-8.13-3.43-11.64,1.55-.92,5.16-3.05,7.03-2.99,1.87,.04,1.29,.34,1.68,1.85,.16,.49-.16,1.23,.03,1.72,.29,.65,1.16,.79,1.58,1.36,1.46,2.07,1.79,4.46,4.62,4.39,1.61-.04,4.95-1.27,6.42-2.13Z"/><path class="cls-1" d="M108.31,310.72c.49-.65,1.27-1.18,1.81-1.79,.42-.5,.73-.86,1.35-1.08,1.25-.36,1.97-.04,2.93,.62,.87,.54,2.63,1.85,3.64,.92,.55-.49,.53-2.11,.17-2.69-.41-.69-1.73-1.59-2.42-1.89-1.04-.47-2.27-.97-3.41-.93-.62,0-1.06,0-1.61,.24-.87,.37-1.67,1.03-2.36,1.64-1.34,1.2-1.72,4.45-.1,4.97Z"/><path class="cls-1" d="M142.81,293.05c.04,1.38,.37,3.16,0,4.46-.21,.69-.89,1.74-1.56,1.96-.6,.24-1.47-.19-2.04,0-1.3,.58-1.28,2.58-2.38,3.44-.51,.34-1.3,.34-1.74,.91-.38,.43-.43,1.31-.58,1.85,2.61,.43,5.12-.34,7.36-1.46,2.13-1.08,3.77-1.23,4.63-3.62,.48-1.31,1.13-3.08,.24-4.39-.89-1.31-2.55-2.39-3.91-3.16Z"/><path class="cls-1" d="M138.83,287.27c1.83-1.98,4.81,2.5,2.46,3.61-1.03,.54-2.19,.24-2.16-.95,.02-.8-.29-2.07-.3-2.65Z"/><path class="cls-1" d="M135.96,286.27c.62,.3,.77,4.54-1.91,4.82-1.14,.11-2.07,.04-2.21-1.2-.08-.69,.21-.65,.38-1.12,.17-.47-.04-1.27,.3-1.7,.59-.69,2.83-1.12,3.44-.8Z"/><path class="cls-1" d="M127.63,336.81c-1.37-1.59-.64-3.04,1.31-3.4,1.4-.22,3.09-.69,4.51-.54,1.41,.15,2.06,1.23,3.21,1.59,.61,.15,1.23,.07,1.84,.3,.78,.32,.93,.86,1.55,1.23,1.19,.82,2.53,.35,3.5,1.51,.61,.69,.78,1.31,.86,2.22,.07,.73,.24,1.89-.05,2.54-.51,1.23-1.3,1.2-1.74,.04-.17-.41-.25-1.18-.55-1.46-.66-.62-2.13-.22-2.92-.11-.7,.07-1.39,.15-2.1,.15-1.21,0-.96-.11-1.38-.99-1.05-2.24-3.33,.49-4.32-.82-.66-.91,.07-1.53-1.43-2.07-.73-.22-1.51-.39-2.3-.19Z"/><path class="cls-1" d="M128.47,358.3c1.96-.34,.68,4.35,.74,5.21,.21,.11,.43,.15,.66,.11-.02-.77,1.29-1.16,1.75-.58,.24,.3,.14,.8,.21,1.16,.12,.54,.34,1.12,.8,1.46,.73,.54,1.97,.54,1.82,1.7-.14,1.31-1.47,1.85-2.63,1.7-1.26-.13-1.58-.9-2.05-1.85-.26-.54-.47-.54-1.07-.75-.47-.15-1-.19-1.21-.73-.16-.41,.02-.84,.2-1.16,.11-.15,.47,0,.37-.34-.07-.19-.54-.19-.67-.19-1.17-.13-1.91,.37-2.05-1.12-.11-1.12,1.15-1.08,1.36-2.13,.14-.65,.65-2.54,1.78-2.5Z"/><path class="cls-1" d="M87.68,386.76c.66,.58,1.37,1.31,1.75,2.28,.24,.65,.34,1.34,.61,1.96,.36,.84,.51,1.55,.53,2.54,.04,1.2-.59,1.23-1.74,1.34-1.02,.13-1.77-.41-2.73-.58-.95-.11-1.52-.11-1.69-1.23-.09-.62,.03-1.27,.04-1.89,.02-.58-.21-1.23-.12-1.76,.16-1.01,.97-.97,1.84-1.16,.35-.11,.61-.07,.9-.43,.32-.35,.17-1.01,.62-1.08Z"/></g><path class="cls-1" d="M199.55,77.78c.58,5.14,2.64,9.1,1.95,14.76-.61,5.12-2.69,9.56-2.89,15.02-.47,11.02,6.12,17.88,7.75,28.02,.9,5.55-.55,16.76,1.78,21.61,4.36,9.08,8.18,17.86,10.47,27.5,2.36,9.58,6.91,14.94,13.96,21.69,6.2,5.81,5.59,12.87,2.9,20.27-1.35,3.77-2.43,8.93-4.7,12.16-2.61,3.7-7.15,4.39-10.24,7.32-7.56,7.06,6.39,18.81,5.4,27.89-.4,3.16-1.19,6.97-3.99,8.74-2.66,1.66-4.47,2.02-3.87,5.66,.48,2.71,2.54,4.67,3.21,7.17,.86,2.93-1.03,5.04-.14,7.55,1.12,3.01,4.33,5.75,5.08,9.06,.53,2.22,1.49,4.32,3.04,5.92,1.07,1.08,3.19,1.63,3.95,3.05,.97,1.92,.59,5.25,1.15,7.36,.64,2.17,1.23,3.48,2.51,5.25,2.19,2.84,4.45,6.54,8.31,7.47,3.73,.84,7.77-1.89,10.2,1.96,2.48,3.92-.35,5.62-2.73,8.2-2.11,2.39-1.67,5.36-.9,8.16,.95,3.36,3.28,4.97,5.24,7.6,1.88,2.5,3.38,5.12,5.58,7.4,1.85,1.92,4.29,4.3,7,4.65,2.85,.43,5.12-2.04,7.88-1.42,.32,3.01-.98,4.46-2.38,6.97-1.21,2.28-1.26,3.74-1.04,6.31,.37,5.58,2,8.59,5.79,12.72-3.91-.69-6.34,4.5-9.68,5.19-2.37,.5-4.65-1.34-7.13-1.16-4.75,.43-12.63,4.75-16.36,.36-2.67-3.23-3.91-7.75-7.43-10.01-4.21-2.75-9.2-1.48-11.86,2.8-1.68,2.78-3.97,9.6-6.95,10.83-1.75,.77-5.4,.07-7.2-.04-3-.13-6.11-.24-8.98-.82-1.66-.34-2.76-.84-3.56-1.92-.37-.54-.7-1.16-.98-1.92-.6-1.62-.5-3.81-2.12-4.46-2.35-.93-3.38,1.46-4.92,2.54-1.26,.77-5.28,2.07-6.74,1.85-.77-.07-3.68-2.43-3.85-3.04-.66-2.07,1.8-2.62,2.78-3.42,1.57-1.29,.92-2.56,1.34-4.48,.5-2.54,2.22-3.23,4.4-4.28-.73-2.76-4.41-.65-6.26-.07-1.65,.47-2.78,.62-4.5-.22-3.47-1.7-7.41-4.28-7.35-8.37,.07-2.04,.04-2.95-.83-4.8-.54-1.31-1.5-1.44-1.06-3.08,.15-.47,.79-.75,.91-1.12,.43-1.7,.33-1.66-.38-3.23-.81-1.81-1.08-1.89-.21-4.09,.44-1.12,.93-2.86,1.73-3.74,1.18-1.27,3.35-.32,4.37-1.38,.81-.86,.16-2.71,.49-3.74,.54-1.89,1.51-1.81,2.89-2.74,3.67-2.58,.64-4.32-1.76-6.2-2.1-1.77-2.4-3.59-1.84-6.35,.28-1.12,.62-2.32,.86-3.47,.18-.88,.68-4.35,1.28-4.84,2.63-2.28,6.22,2.37,8.73,1.23-.35-1.4-.49-3.05-.31-4.45,.25-2.37,.47-1.81,2.26-2.95,1.38-.9,2.19-1.74,1.83-3.51-.34-1.81-.96-1.46-2.92-1.46-3.84,.04-8.43,.34-11.25-2.71-2.28-2.5-2.82-5.51-4.44-8.35-.89-.21-2.02,0-2.9,.07-2.79,7-4.49,1.16-8.24-1.81-3.2-2.5-6.55-3.08-5.68-8.31,.41-2.75,4.78-8.22,5.48-3.18,.6,4.09-5.16,5.72,1.67,7.6,3.71,1.03,17.34,1.78,13.8-5.9-1.47-3.12-6.23-4.86-6.87-8.39-.83-4.52,3.05-6.44,6.85-6.48,3.74,.04,6.05,1.78,9.28,2.9,3.35,1.16,8.01,1.6,11.57,.65-1.02-3.88-4.99-3.31-8.12-3.85-5.19-.9-7.31-2.28-9.48-6.86-.59-1.33-.15-2.28-1.31-3.33-.43-.41-1.15,.08-1.35-.11-1.54-1.46-1.13-2-2.26-3.55-1.91-2.61-5.46-2.95-6.83-6.39-2.09-5.36,4.79-7.75,8.92-9.21,4.76-1.74,9.5-5.27,11.83,1.2,1.5,4.17,2.16,10.48,5.94,13.17,.06-2.34-.9-5.96-.12-7.98,.32,.2,.64,.32,.94,.24,.02-1.34-.13-2.93-.56-4.24-.45-1.49-1.97-2.5-2.53-3.81-.44-1.12-.44-3.44,.27-4.46,1.06-1.44,3.82-.04,4.31-1.63,.58-1.92-2.78-1.96-3.93-2.32-1.06-.22-2.52-.99-3.64-.69-.77,.28-1.01,1.05-1.52,1.7-1.82,2.04-2.11,.62-3.69-.43-1.26-.8-3.39-1.2-4.89-1.2-.07-.77-.3-2.04-.11-2.73,.15-.47,.66-.8,.8-1.16,.48-1.42-.06-2.39,1.55-2.82,2.11-.49,4.45,2.21,6.3-.3,1.21-1.49,.96-5.44,.61-7.36-.42-2.76-5.04-3.51-6.41-1.05-.44,.82-.5,2.13-1.01,3.05-.64,1.2-1.19,2.13-1.36,3.44-1.33-.9-3.44-.97-5.03-1.96-1.62-1.05-3-2.28-5-1.48-1.86,.69-2.84,2.63-5.14,1.74-2.09-.88-1.95-3.7-4.33-4.24-.16,2.32-1.8,.78-3.27,.17-.25-1.7,.86-3.08,1.46-4.45,.59-1.53,1.02-2.47,2.13-3.85,2.43-2.97,4.05-6.43,7.06-8.78,1.89-1.49,3.65-3.01,5.65-4.32,1.99-1.23,4.15-1.85,5.99-3.08,3.46-2.24,5.61-6.2,8.8-8.78,2.51-2,3.21-2.82,2.98-6.35-.31-4.67-.84-9.28-.94-13.99-.06-2.07-.89-7-2.2-2.61-.42,1.61,.09,3.42-.13,4.97-.27,1.81-1.06,1.89-1.84,3.35-.59,1.08-1.12,3.44-.56,4.56,.42,.99,2.07,1.07,2.57,1.92,2.04,3.7-4.31,6.58-6.57,7.94-1.78,1.06-3.11,1.79-3.86,3.64-.52,1.44-.2,3.66-1.75,4.56-2.55,1.57-6.58-1.12-8.81-2.24-3.72-1.81-4.09-4.65-6.54-7.73-1.34-1.74-3.44-2.86-5.07-4.24-1.53-1.27-3.14-3.51-5.18-4.09-2.8-.77-8.91-.3-11.48,.62-3.09,1.08-2.59,2-3.4,4.63-.44,1.53-1.72,2.39-2.16,3.77-.81,2.84,1.97,4.32,2.29,6.58,.17,1.12,.22,4.05-.1,5.25-.33,1.31-1.87,2.15-.86,3.74,1.08,1.66,3.32-.15,4.72,1.46,.9,1.01,.48,3.19,1.7,4.46,1.76,1.81,5.46,3.18,4.97,6.44-2.28,.04-4.4,0-6.55-.8-2.08-.9-3.08-2.93-5.27-3.62-1.78-.62-6.59-.69-7.33-3.08-.72-2.32,2.35-2.09,3.8-2.13,.56-2.84-2.3-2.88-4.35-2.43-3.47,.82-1.71,2.86-2.78,5.06-.85,1.64-2.67,.95-3.89,2.15-1.18,1.2,0,2.07-.45,3.27-1.16,3.55-7.28-1.53-9.85-.77-1.45,.47-2.15,1.31-3.64,1.55-1.29,.19-1.88-.32-2.97-.54-1.77-.43-3.31-.43-5.18-.39-1.81,.07-11.93,2.17-12.69-.19,3-1.92,2.47-5.47,3.49-8.44,1.1-3.27,3.9-3.42,6.56-4.97,1.45-.8,2.62-1.66,4.2-2.28,1.18-.41,2.59-.52,3.44-1.57,1.87-2.04,.43-5.77,1.21-8.2,.63-2.02,1.86-3.01,3.45-3.47-2.65,.07-5.32,.54-6.85,2.47-2.5,3.12-.16,8.78-6.29,8.44-1.49-.17-2.56-1.23-3.86-1.47-1.68-.23-2.85,.54-4.06,1.31-1.37,.97-2.34,2.39-3.99,2.54-1.77,.17-3.4-1.23-4.7-2.22-1.65-1.2-2.23-1.96-3-3.92-.78-1.94-1.98-2.93-3.21-4.52-2.99-3.77-2.41-8.09-2.98-12.55-.43-3.23-1.34-6.13-3.81-8.63-1.19-1.2-3.28-2-3.84-3.66-.61-1.61-.22-3.77-.74-5.51-.85-3.23-.92-5.7-1.3-9-.25-2.24-3.05-7.29,1.11-7.94,1.26-3.81-2.43-7.1-2.83-10.67-.32-2.97,.42-6.82,1.7-9.53,1.69-3.34,.72-6.97,2-10.48,.44-1.2,1.77-2.18,2.31-3.45,.73-1.74,.49-3.55,.44-5.4-.09-3.81-1.33-5.85-3.21-9.1-1.67-2.84-3.77-4.69-3.87-8.01-.06-2.8,.19-5.62,.24-8.39,.08-3.16-2.24-5.08-2.57-8.09-.43-4.67,.88-11.32-3.99-15.56-2.11-1.89-2.01-4.39-1.86-7.06,.09-2.07,.12-3.19,2.3-3.31,2.65-.19,4.43,.84,4.45-2.78-.03-.65-.43-2.41-.14-3.03,.64-1.44,.93-.58,2.01-1.23,2.87-1.74,2.37-7.21,6.55-7.57,1.81-.11,3.35,1.01,4.41,2.31,1.18,1.48,1.83,4.67,3.45,5.62,2.31,1.27,1.73-1.16,1.69-2.93-.13-3.19-2.95-6.58-2.95-6.58,0,0,11.81,4.92,14.64,6.62s1.13,2.26,11.86,3.39,19.2,1.13,22.02,4.52,11.01,20.33,19.91,23.15,10.59,5.08,21.88,5.65,23.72,1.69,28.8,0,10.6-3.68,10.6-3.68l-.17,4.65Z"/></svg>